<?xml version="1.0" standalone="no"?>
<!DOCTYPE svg PUBLIC "-//W3C//DTD SVG 20010904//EN"
 "http://www.w3.org/TR/2001/REC-SVG-20010904/DTD/svg10.dtd">
<svg version="1.0" xmlns="http://www.w3.org/2000/svg"
 width="1596.000000pt" height="870.000000pt" viewBox="0 0 1596.000000 870.000000"
 preserveAspectRatio="xMidYMid meet">

<g transform="translate(0.000000,870.000000) scale(0.100000,-0.100000)"
fill="#000000" stroke="none">
<path d="M6453 8013 l-61 -4 5 -634 6 -635 -89 0 c-161 0 -575 -34 -874 -71
-1183 -147 -2263 -564 -3350 -1292 -953 -639 -1505 -1420 -1611 -2282 -16
-129 -16 -412 0 -537 34 -269 112 -527 232 -768 158 -316 371 -579 626 -774
57 -43 82 -54 50 -22 -88 89 -251 294 -339 427 -206 311 -294 535 -318 811
-12 139 -7 462 10 643 20 206 76 486 94 468 4 -4 4 0 1 9 -7 18 21 125 36 134
5 3 7 9 4 14 -8 13 29 92 39 83 4 -4 4 1 0 11 -4 10 -3 21 2 25 13 9 37 54 25
47 -7 -4 -8 -1 -5 8 3 8 12 12 20 9 10 -4 12 0 8 11 -3 9 -3 24 2 34 4 9 8 19
9 22 9 33 18 49 26 44 6 -3 9 0 8 7 -1 8 1 22 6 32 7 16 9 16 19 2 10 -13 13
-13 24 6 13 20 12 21 -3 15 -15 -5 -16 -2 -10 21 8 36 24 52 18 19 -3 -14 -1
-26 5 -26 10 0 25 57 18 69 -2 3 2 11 8 17 10 9 12 4 12 -21 -1 -18 -5 -31
-10 -27 -5 3 -6 0 -2 -7 4 -6 2 -18 -4 -26 -7 -8 -10 -22 -6 -30 3 -8 0 -15
-7 -15 -8 0 -7 -3 2 -9 20 -13 41 -2 52 26 7 20 15 24 35 20 17 -3 28 1 35 14
5 11 6 19 2 19 -4 0 0 7 10 14 10 8 14 17 9 20 -9 5 -24 -15 -26 -36 -1 -3 -5
-10 -10 -15 -6 -5 -6 -2 -1 6 6 11 4 13 -10 7 -13 -5 -10 1 8 18 26 24 38 54
17 41 -16 -10 -11 1 7 16 9 8 14 9 10 3 -4 -7 0 -18 9 -25 8 -7 14 -8 13 -3
-3 20 2 35 10 29 5 -3 12 -1 16 5 3 5 2 10 -2 10 -5 0 -9 9 -9 20 0 10 2 17 5
15 2 -3 11 1 19 8 13 10 14 9 3 -10 -22 -42 -3 -23 31 30 40 64 44 72 28 62
-9 -5 -11 -4 -6 4 4 6 11 9 15 6 8 -5 71 68 71 82 0 4 -5 1 -11 -7 -9 -13 -10
-13 -6 0 2 8 8 15 14 15 13 0 63 59 63 76 0 7 3 10 6 7 3 -4 22 12 42 35 20
23 39 44 42 47 43 43 118 139 112 144 -4 4 -2 6 4 4 6 -2 66 49 135 113 68 65
156 143 195 175 40 33 69 63 66 68 -3 5 0 6 5 3 6 -4 31 11 55 33 59 51 388
287 520 371 720 461 1639 850 2553 1078 247 61 698 151 762 151 25 0 42 -25
27 -40 -5 -5 -88 -29 -184 -54 -361 -93 -704 -208 -1055 -356 -139 -58 -496
-222 -492 -226 2 -2 57 19 123 47 280 120 605 235 889 318 291 84 711 178 742
167 23 -9 11 -48 -17 -57 -14 -4 -75 -21 -136 -38 -226 -63 -531 -172 -759
-271 -1130 -492 -2062 -1323 -2664 -2375 -310 -541 -476 -1031 -500 -1474 -24
-451 81 -805 326 -1102 179 -218 460 -381 763 -444 162 -34 462 -37 575 -7
l30 8 -30 19 c-360 220 -623 463 -800 739 -248 388 -313 838 -199 1383 3 18 9
31 13 29 3 -2 6 12 7 31 0 19 5 38 11 41 6 4 14 27 18 51 5 31 10 40 16 30 6
-9 7 -1 3 21 -4 28 -3 32 6 20 9 -12 10 -11 5 6 -3 11 2 38 12 60 12 28 18 34
21 21 2 -10 -2 -26 -10 -35 -12 -15 -11 -16 5 -3 13 10 17 23 14 40 -3 14 0
36 7 49 10 20 12 15 10 -39 0 -33 2 -55 6 -49 4 7 12 10 18 6 10 -6 27 42 17
52 -3 3 -5 -3 -5 -13 0 -14 -3 -16 -11 -8 -6 6 -13 35 -14 64 -3 50 -2 52 11
29 7 -14 11 -33 8 -43 -3 -10 -2 -17 3 -16 36 6 61 -3 67 -25 5 -21 11 -24 43
-23 29 2 39 -2 41 -16 3 -14 -4 -17 -38 -17 -29 0 -40 -4 -38 -12 7 -20 67
-22 74 -4 4 10 18 16 39 16 27 0 34 -5 39 -25 5 -21 11 -24 42 -21 29 2 38 -1
42 -16 2 -10 11 -18 19 -18 8 0 11 5 7 13 -4 6 -4 9 1 5 4 -4 14 -3 22 3 20
17 16 1 -6 -22 -14 -16 -17 -28 -11 -53 5 -22 3 -39 -6 -51 -8 -10 -14 -33
-13 -49 0 -17 3 -25 6 -18 2 6 13 12 24 12 11 0 19 7 19 18 0 14 -2 15 -10 2
-7 -11 -12 -12 -20 -4 -8 8 -7 16 5 28 15 15 21 38 24 94 1 15 5 21 13 16 7
-4 8 -3 4 4 -4 7 -2 12 3 12 6 0 11 8 11 18 0 15 2 15 11 2 9 -13 10 -12 5 3
-3 10 1 32 10 48 8 17 12 38 9 49 -3 10 -1 21 5 25 7 4 9 18 6 34 -4 17 -3 21
2 13 7 -11 10 -10 16 3 3 9 6 28 6 41 0 13 5 24 11 24 6 0 8 9 4 20 -3 11 -3
20 2 20 7 0 21 34 38 90 9 32 87 218 119 285 18 39 36 80 40 92 8 24 133 255
199 368 307 521 768 1034 1248 1392 349 260 717 460 1094 595 122 44 386 120
392 114 2 -2 7 -271 11 -597 l7 -594 89 -3 c117 -4 170 14 228 76 35 37 52 68
75 137 17 50 47 135 66 190 170 481 268 767 265 770 -2 2 -91 7 -198 10 -278
8 -423 15 -429 20 -2 3 20 5 50 5 30 0 133 9 229 20 157 17 260 32 512 70 84
13 111 9 102 -14 -7 -19 6 -43 15 -28 4 6 16 1 30 -14 21 -22 21 -24 5 -25
-11 -1 -6 -5 11 -9 29 -7 29 -8 -10 -10 l-40 -2 45 -13 c43 -12 44 -12 15 -16
-57 -9 148 -22 244 -16 239 14 450 128 496 268 54 163 -78 316 -335 389 -111
31 -259 36 -508 15 -117 -9 -215 -15 -217 -13 -2 1 -74 192 -160 423 -249 668
-248 666 -282 706 -30 35 -115 76 -168 82 -22 2 -68 2 -102 0z m-5251 -3895
c-8 -8 -9 -4 -5 13 4 13 8 18 11 10 2 -7 -1 -18 -6 -23z m109 -35 c-4 -15 -13
-28 -19 -29 -7 -1 -8 0 -2 3 5 2 10 13 10 22 0 15 8 31 16 31 1 0 -1 -12 -5
-27z m-137 -8 c-4 -8 -11 -15 -16 -15 -6 0 -5 6 2 15 7 8 14 15 16 15 2 0 1
-7 -2 -15z m36 11 c0 -2 -8 -10 -17 -17 -16 -13 -17 -12 -4 4 13 16 21 21 21
13z m40 -32 c0 -8 -19 -13 -24 -6 -3 5 1 9 9 9 8 0 15 -2 15 -3z m-115 -40
c-8 -16 -15 -23 -15 -16 0 13 22 53 27 48 2 -2 -3 -16 -12 -32z m48 -51 c-3
-7 -9 -10 -14 -7 -14 8 -11 21 5 21 8 0 12 -6 9 -14z m-23 -46 c0 -2 -11 -14
-25 -27 -18 -16 -25 -19 -25 -9 0 12 8 19 48 38 1 0 2 0 2 -2z m1690 -612 c0
-5 -5 -3 -10 5 -5 8 -10 20 -10 25 0 6 5 3 10 -5 5 -8 10 -19 10 -25z m-37
-28 c3 -8 2 -20 -3 -26 -5 -9 -7 -4 -7 13 0 29 2 32 10 13z m-23 -102 c0 -5
-5 -3 -10 5 -5 8 -10 20 -10 25 0 6 5 3 10 -5 5 -8 10 -19 10 -25z m417 -72
c-3 -10 -5 -4 -5 12 0 17 2 24 5 18 2 -7 2 -21 0 -30z m6 -64 c-7 -25 -10 -24
-15 5 -3 16 -1 23 7 19 7 -2 11 -13 8 -24z m-66 -141 c-3 -8 -6 -5 -6 6 -1 11
2 17 5 13 3 -3 4 -12 1 -19z"/>
<path d="M5020 6800 c0 -5 14 -7 33 -3 45 8 47 13 4 13 -20 0 -37 -4 -37 -10z"/>
<path d="M4930 6793 c-14 -2 -95 -15 -180 -29 -277 -44 -632 -117 -618 -126 8
-6 5 -7 -10 -3 -12 4 -66 -3 -120 -15 -158 -35 -517 -132 -522 -140 -3 -5 -12
-8 -20 -7 -28 4 -150 -36 -143 -46 3 -6 1 -7 -5 -3 -10 6 -171 -37 -197 -52
-5 -4 -14 -8 -20 -9 -44 -10 -115 -40 -109 -46 4 -3 -4 -4 -16 -2 -13 3 -28 1
-34 -4 -6 -4 -33 -16 -61 -27 -27 -10 -53 -23 -57 -28 -4 -6 -20 -11 -35 -12
-15 -1 -53 -13 -83 -26 -30 -14 -76 -33 -103 -42 -26 -10 -53 -24 -61 -31 -7
-7 -32 -18 -55 -25 -25 -6 -39 -15 -35 -22 4 -7 -1 -8 -16 -3 -14 5 -20 3 -16
-3 3 -6 1 -12 -6 -14 -9 -3 -9 -6 0 -12 7 -4 12 -2 12 3 0 6 17 11 38 11 25 0
33 -3 23 -9 -8 -5 -20 -7 -28 -4 -7 3 -13 0 -13 -7 0 -8 9 -11 24 -8 17 3 23
1 19 -8 -4 -10 3 -10 31 -2 19 6 32 16 29 21 -3 6 -1 7 4 4 6 -4 48 7 94 24
46 17 98 35 114 41 17 5 44 16 60 23 17 7 71 25 120 40 204 63 255 82 248 90
-5 4 -2 5 5 1 17 -10 287 66 597 168 138 46 287 93 332 106 46 13 79 28 76 33
-3 6 -1 7 6 3 6 -4 69 9 139 28 157 43 438 115 473 121 14 2 53 11 86 19 34 9
70 16 81 16 12 0 24 5 27 10 6 10 -25 11 -75 3z m-2255 -613 c-3 -5 -12 -10
-18 -10 -7 0 -6 4 3 10 19 12 23 12 15 0z m-38 -37 c0 -16 1 -16 -33 2 l-29
15 31 -3 c17 -1 31 -8 31 -14z m-117 -33 c0 -5 -10 -10 -22 -10 -19 0 -20 2
-8 10 19 13 30 13 30 0z m80 -14 c0 -2 -7 -6 -15 -10 -8 -3 -15 -1 -15 4 0 6
7 10 15 10 8 0 15 -2 15 -4z"/>
<path d="M7388 6173 c6 -2 18 -2 25 0 6 3 1 5 -13 5 -14 0 -19 -2 -12 -5z"/>
<path d="M2361 6071 c-16 -10 -6 -31 15 -31 16 0 19 -16 4 -23 -6 -3 -5 -4 2
-3 13 3 13 45 0 58 -4 4 -13 3 -21 -1z m19 -11 c0 -5 -5 -10 -11 -10 -5 0 -7
5 -4 10 3 6 8 10 11 10 2 0 4 -4 4 -10z"/>
<path d="M2297 6032 l-27 -19 22 -11 c23 -12 23 -12 -2 -7 -25 5 -25 5 -2 -7
28 -14 37 -6 22 21 -9 17 -8 21 5 21 8 0 15 5 15 10 0 13 0 13 -33 -8z"/>
<path d="M2448 6023 c7 -3 16 -2 19 1 4 3 -2 6 -13 5 -11 0 -14 -3 -6 -6z"/>
<path d="M2240 6001 c-8 -6 -18 -7 -24 -4 -5 3 -6 1 -2 -5 9 -15 43 -11 43 5
0 7 -1 13 -1 13 -1 0 -8 -4 -16 -9z"/>
<path d="M2145 5960 c-16 -7 -17 -9 -3 -9 9 -1 20 4 23 9 7 11 7 11 -20 0z"/>
<path d="M2128 5923 c7 -3 16 -2 19 1 4 3 -2 6 -13 5 -11 0 -14 -3 -6 -6z"/>
<path d="M4563 4843 c-162 -161 -243 -249 -393 -427 -14 -17 -18 -26 -10 -21
8 5 -3 -10 -25 -33 -22 -23 -44 -50 -50 -60 -5 -10 -23 -35 -39 -56 -25 -31
-27 -39 -15 -47 11 -8 11 -9 -4 -7 -11 2 -24 -8 -35 -27 -9 -16 -23 -35 -29
-43 -14 -15 -18 -36 -5 -29 4 3 8 -8 9 -24 1 -15 -2 -31 -6 -34 -5 -3 -7 4 -4
15 7 27 -5 25 -17 -2 -6 -17 -9 -18 -9 -6 -1 9 4 20 9 23 6 4 8 11 4 16 -7 12
-70 -85 -79 -123 -4 -16 -12 -25 -17 -22 -6 4 -6 -1 0 -13 9 -15 8 -20 -3 -20
-8 0 -11 5 -8 10 3 6 1 7 -6 3 -6 -4 -9 -11 -6 -16 3 -5 1 -12 -5 -15 -6 -4
-8 -15 -5 -26 5 -14 2 -17 -8 -13 -8 3 -17 -2 -20 -10 -4 -11 -1 -13 10 -9 12
5 14 3 8 -7 -5 -8 -4 -11 3 -6 6 3 14 -4 18 -16 7 -22 7 -22 15 -3 6 15 8 11
8 -17 1 -27 5 -38 16 -38 8 0 15 5 15 10 0 6 -5 10 -11 10 -7 0 -9 12 -7 31 4
26 2 30 -14 26 -23 -6 -32 8 -19 30 6 10 11 13 11 7 0 -13 33 -15 41 -2 10 15
39 -3 45 -27 4 -16 11 -22 21 -18 10 4 11 8 4 13 -8 4 -9 15 -3 30 9 23 9 23
23 -8 l13 -31 18 39 c10 21 23 42 28 45 6 3 10 12 10 19 0 14 114 224 178 329
21 34 45 73 53 87 8 14 16 27 20 30 11 10 69 111 69 120 0 6 3 10 8 10 4 0 20
21 36 48 17 26 40 61 53 77 13 17 27 35 31 40 4 6 14 19 22 30 13 17 13 18 0
11 -13 -7 -13 -6 0 6 8 7 28 31 45 53 16 22 33 45 37 50 4 6 20 26 36 45 15
19 44 58 63 85 19 28 37 52 42 53 8 4 30 42 24 42 -3 0 -90 -84 -194 -187z
m-669 -879 c3 -8 2 -12 -4 -9 -6 3 -10 10 -10 16 0 14 7 11 14 -7z m16 -53 c0
-4 -7 -8 -15 -8 -16 0 -20 9 -9 20 8 8 24 -1 24 -12z m105 -11 c-5 -17 -10
-19 -21 -9 -8 6 -14 17 -13 23 0 7 2 6 6 -1 7 -19 23 -16 23 4 0 9 3 14 6 10
3 -3 3 -15 -1 -27z m-28 -52 c-3 -7 -5 -2 -5 12 0 14 2 19 5 13 2 -7 2 -19 0
-25z"/>
<path d="M5361 4086 c-8 -9 -11 -48 -9 -112 l3 -99 215 -5 215 -5 5 -675 5
-675 125 0 125 0 5 675 5 675 220 3 c160 2 221 6 227 15 4 6 8 51 8 99 0 66
-4 90 -16 102 -14 14 -79 16 -568 16 -462 0 -555 -2 -565 -14z"/>
<path d="M6763 4089 c-10 -10 -13 -180 -13 -783 0 -424 4 -777 8 -784 7 -9 39
-12 128 -10 l119 3 5 335 5 335 145 3 145 3 155 -338 155 -338 128 -3 c101 -2
128 0 133 11 5 14 -21 72 -186 412 -130 268 -133 275 -129 279 2 1 30 13 62
26 172 68 270 261 239 472 -26 181 -119 297 -288 360 -56 21 -77 22 -429 26
-288 2 -373 0 -382 -9z m688 -230 c95 -29 152 -113 153 -224 1 -83 -23 -136
-80 -183 -56 -47 -97 -53 -314 -50 l-195 3 -3 220 c-1 121 0 225 2 232 7 17
381 18 437 2z"/>
<path d="M8596 4078 c-12 -20 -127 -375 -443 -1366 -30 -95 -52 -179 -49 -187
7 -20 248 -22 263 -2 11 12 27 60 63 185 l21 72 311 -2 311 -3 37 -120 c20
-66 39 -126 44 -133 5 -8 45 -12 137 -12 l129 0 0 24 c0 13 -32 122 -71 243
-104 321 -144 446 -284 883 -70 217 -133 405 -141 418 -14 21 -20 22 -164 22
-144 0 -150 -1 -164 -22z m203 -395 c131 -427 201 -665 201 -679 0 -12 -43
-14 -240 -14 -140 0 -240 4 -240 9 0 5 40 141 89 303 49 161 101 335 117 386
15 50 31 92 35 92 5 0 22 -44 38 -97z"/>
<path d="M9332 4083 c-6 -11 -5 -31 4 -57 7 -23 58 -187 113 -366 55 -179 153
-494 217 -700 64 -206 120 -388 125 -404 5 -16 14 -33 21 -38 7 -4 68 -8 135
-8 106 0 124 2 132 18 5 9 53 157 106 327 53 171 128 407 165 525 161 504 211
672 208 693 -3 21 -8 22 -118 25 -82 2 -120 -1 -132 -10 -10 -8 -77 -229 -183
-603 -92 -324 -169 -592 -171 -594 -2 -2 -7 -2 -10 2 -4 3 -82 270 -174 592
-93 322 -174 592 -180 600 -10 12 -39 15 -131 15 -100 0 -119 -3 -127 -17z"/>
<path d="M10798 4089 c-17 -9 -18 -58 -18 -789 l0 -780 23 -5 c12 -3 252 -4
532 -3 l510 3 3 104 c2 77 -1 107 -10 113 -7 4 -190 8 -406 8 l-392 0 2 228 3
227 275 5 275 5 0 105 0 105 -275 5 -275 5 0 220 0 220 400 5 400 5 3 104 c2
77 -1 107 -10 113 -19 12 -1019 10 -1040 -3z"/>
<path d="M12130 4081 c-7 -13 -10 -276 -10 -784 0 -633 2 -766 14 -776 9 -8
156 -10 527 -9 l514 3 3 104 c2 77 -1 107 -10 113 -7 4 -185 8 -395 8 l-383 0
-2 670 c-3 583 -5 672 -18 680 -8 5 -63 10 -122 10 -96 0 -108 -2 -118 -19z"/>
<path d="M1140 3829 c0 -11 -4 -18 -8 -15 -4 2 -14 0 -22 -5 -12 -7 -12 -11
-2 -17 7 -5 10 -17 7 -28 -4 -10 3 -2 14 20 11 21 25 44 32 52 9 11 8 14 -5
14 -9 0 -16 -8 -16 -21z"/>
<path d="M3893 3823 c-21 -7 -15 -30 8 -36 17 -4 20 -11 16 -28 -4 -15 -3 -19
5 -11 10 10 3 68 -10 76 -4 2 -13 1 -19 -1z"/>
<path d="M3784 3787 c5 -19 3 -26 -3 -22 -7 3 -8 0 -5 -9 8 -20 20 -20 28 0 3
9 -1 25 -10 37 -16 22 -16 22 -10 -6z"/>
<path d="M1020 3785 c0 -5 5 -17 10 -25 5 -8 10 -10 10 -5 0 6 -5 17 -10 25
-5 8 -10 11 -10 5z"/>
<path d="M990 3771 c0 -5 5 -13 10 -16 6 -3 10 -2 10 4 0 5 -4 13 -10 16 -5 3
-10 2 -10 -4z"/>
<path d="M3951 3771 c-9 -6 -11 -14 -4 -26 9 -15 11 -14 15 9 3 14 5 26 4 26
0 0 -7 -4 -15 -9z"/>
<path d="M3747 3757 c-3 -8 1 -14 8 -14 7 0 11 6 8 14 -3 7 -6 13 -8 13 -2 0
-5 -6 -8 -13z"/>
<path d="M1011 3735 c1 -19 18 -51 18 -35 0 8 -4 22 -9 30 -5 8 -9 11 -9 5z"/>
<path d="M1040 3731 c0 -6 4 -11 9 -11 6 0 3 -16 -5 -35 -18 -43 -18 -47 2
-71 15 -18 15 -18 4 3 -6 13 -7 34 -4 49 6 23 8 24 17 9 8 -14 11 -15 18 -4
13 21 11 29 -6 23 -11 -5 -14 0 -13 16 2 13 -3 25 -9 27 -7 3 -13 0 -13 -6z"/>
<path d="M981 3719 c-1 -9 7 -23 17 -30 15 -12 16 -12 6 1 -6 8 -14 22 -17 30
-5 13 -6 12 -6 -1z"/>
<path d="M1021 3604 c0 -11 3 -14 6 -6 3 7 2 16 -1 19 -3 4 -6 -2 -5 -13z"/>
<path d="M3131 2754 c0 -11 3 -14 6 -6 3 7 2 16 -1 19 -3 4 -6 -2 -5 -13z"/>
<path d="M3140 2711 c0 -6 4 -13 10 -16 6 -3 7 1 4 9 -7 18 -14 21 -14 7z"/>
<path d="M7642 2063 c-13 -2 -19 -9 -16 -15 4 -7 2 -8 -4 -4 -7 4 -20 2 -29
-3 -10 -6 -14 -11 -9 -11 6 0 2 -6 -8 -13 -11 -8 -18 -27 -19 -52 -1 -33 5
-43 38 -72 21 -18 45 -31 52 -29 7 3 13 1 13 -4 0 -5 12 -13 28 -16 15 -4 41
-17 58 -30 25 -19 30 -28 26 -53 -2 -17 -8 -34 -13 -37 -5 -3 -4 -14 2 -25 10
-20 11 -20 35 8 19 22 24 36 21 66 -3 21 -12 46 -21 56 -23 25 -114 64 -132
57 -8 -3 -12 -2 -9 4 3 5 -8 16 -25 25 -16 8 -30 21 -31 28 0 6 -2 24 -3 39
-1 14 1 26 4 25 3 -1 14 4 25 10 46 25 145 -7 145 -47 0 -11 3 -20 8 -21 4 0
15 -2 25 -4 11 -2 17 3 17 16 0 10 -4 19 -10 19 -5 0 -9 3 -9 8 4 22 -3 34
-15 29 -9 -4 -13 -1 -10 6 9 25 -78 51 -134 40z"/>
<path d="M8322 2062 c-36 -11 -94 -62 -88 -78 3 -9 1 -12 -4 -9 -6 4 -10 -34
-10 -104 0 -126 16 -167 74 -195 36 -17 91 -22 82 -7 -3 4 6 6 19 3 20 -3 33
4 60 33 l35 36 0 116 c0 126 -10 157 -59 185 -33 20 -80 28 -109 20z m102 -62
c19 -18 21 -33 21 -135 0 -104 -2 -116 -21 -136 -12 -12 -39 -25 -61 -28 -35
-7 -42 -4 -69 23 -29 31 -29 32 -27 136 2 110 11 141 47 159 30 15 86 5 110
-19z"/>
<path d="M8672 2063 c-12 -2 -38 -21 -57 -40 l-35 -36 0 -124 c0 -123 0 -123
29 -154 18 -19 35 -28 42 -23 7 4 9 3 6 -3 -17 -28 93 -26 135 1 15 10 34 37
44 61 16 44 13 82 -6 70 -6 -4 -7 1 -3 10 5 13 8 14 15 3 6 -9 8 -5 6 12 -3
22 -8 25 -48 27 -63 4 -91 -4 -83 -23 4 -12 15 -14 44 -10 l39 5 0 -37 c0 -59
-10 -79 -43 -93 -41 -17 -75 -12 -107 15 -24 19 -26 29 -29 112 -4 135 3 159
51 183 41 20 41 20 80 0 28 -14 40 -28 45 -50 4 -24 10 -29 27 -27 13 2 20 9
17 18 -2 8 -4 20 -5 25 -3 21 -18 35 -28 29 -6 -4 -8 -2 -5 3 15 25 -77 57
-131 46z"/>
<path d="M9892 2062 c-20 -2 -30 -7 -26 -14 4 -7 2 -8 -4 -4 -17 10 -58 -33
-71 -75 -18 -56 -13 -187 10 -234 24 -51 54 -72 77 -53 12 10 14 10 8 0 -10
-17 17 -26 59 -18 69 13 145 126 84 126 -11 0 -18 -4 -15 -9 4 -5 2 -11 -3
-13 -5 -1 -11 -12 -13 -23 -6 -39 -119 -63 -132 -29 -3 9 -13 14 -21 10 -8 -3
-17 0 -21 6 -4 6 -3 9 2 6 5 -4 9 49 9 124 0 113 2 131 18 139 9 6 15 14 12
20 -3 5 1 6 9 3 8 -3 23 -1 33 4 27 16 90 -23 98 -60 5 -19 13 -28 26 -28 33
0 24 48 -15 85 -36 33 -66 42 -124 37z"/>
<path d="M10233 2063 c-13 -2 -23 -8 -23 -13 0 -4 -9 -10 -21 -13 -13 -4 -18
-10 -13 -18 4 -8 3 -10 -5 -5 -7 5 -17 -6 -27 -30 -12 -29 -15 -63 -12 -140 3
-101 4 -102 38 -135 19 -19 42 -36 50 -38 44 -11 61 -13 77 -6 10 5 24 9 31
11 17 3 51 34 63 56 14 26 22 143 14 205 -7 58 -47 118 -72 109 -8 -3 -11 -1
-8 4 3 6 -2 10 -12 10 -10 0 -27 2 -38 4 -11 2 -30 2 -42 -1z m93 -48 c26 -25
34 -59 34 -148 0 -89 -17 -167 -33 -150 -4 3 -7 1 -7 -6 0 -7 -3 -10 -7 -8 -5
3 -17 1 -28 -3 -28 -10 -93 24 -100 53 -8 37 -11 235 -2 230 4 -2 7 1 7 7 0
29 110 49 136 25z"/>
<path d="M7901 1865 l2 -195 128 0 c98 0 128 3 127 13 -5 23 -23 27 -108 27
-47 -1 -89 -1 -95 -1 -6 1 -9 64 -7 176 l3 175 -26 0 -26 0 2 -195z"/>
<path d="M9005 1980 c-15 -44 -24 -88 -21 -96 3 -8 2 -13 -3 -9 -8 4 -71 -170
-71 -196 0 -6 10 -9 22 -7 15 2 25 13 32 36 l9 32 88 0 87 0 7 -31 c7 -33 30
-48 46 -32 7 7 6 24 -2 52 -9 29 -15 38 -21 29 -6 -9 -7 -5 -3 9 3 13 3 28 -2
35 -4 7 -9 20 -10 28 -2 8 -18 62 -37 120 -32 101 -35 105 -64 108 -29 3 -31
1 -57 -78z m93 -83 c18 -56 32 -107 32 -112 0 -6 -26 -9 -61 -7 -44 3 -64 0
-70 -10 -15 -22 -11 25 6 72 8 23 12 46 9 51 -3 5 -1 9 4 9 4 0 14 23 21 50 7
28 16 50 20 50 4 0 22 -46 39 -103z"/>
<path d="M9290 1871 c0 -195 1 -201 41 -201 4 0 10 66 11 148 l3 147 23 -38
c13 -20 28 -34 34 -31 7 4 8 2 4 -4 -4 -7 22 -58 58 -114 52 -83 69 -103 88
-103 l23 0 3 193 2 192 -25 0 -25 0 0 -145 c0 -80 -4 -145 -8 -145 -5 0 -15
12 -23 28 -7 15 -24 41 -36 58 -13 17 -23 34 -23 37 0 3 -14 28 -31 54 -18 26
-41 63 -53 80 -13 21 -29 33 -43 33 l-23 0 0 -189z m104 83 c3 -8 2 -12 -4 -9
-6 3 -10 10 -10 16 0 14 7 11 14 -7z"/>
<path d="M10502 1868 c3 -185 4 -193 23 -193 19 0 20 7 22 100 3 216 2 202 18
180 8 -11 19 -26 25 -32 6 -7 8 -13 5 -13 -4 0 3 -14 15 -30 12 -17 26 -28 31
-25 5 4 6 -1 3 -10 -15 -37 24 0 61 60 22 36 44 65 48 65 5 0 6 4 2 9 -3 5 -2
12 2 14 5 3 6 -69 5 -160 -4 -155 -3 -165 15 -161 17 3 18 18 21 196 l2 192
-23 0 c-17 0 -29 -11 -45 -39 -12 -21 -18 -42 -14 -46 4 -5 2 -5 -4 -2 -6 3
-21 -11 -33 -33 -12 -22 -26 -40 -30 -40 -4 0 -20 22 -36 49 -17 27 -34 47
-39 44 -5 -4 -6 -1 -2 5 11 18 -26 61 -52 62 l-22 0 2 -192z"/>
<path d="M10900 1866 c0 -188 1 -196 20 -196 17 0 19 8 22 83 l3 82 74 3 c87
3 123 23 141 76 9 27 8 41 -3 68 -27 62 -48 73 -158 76 l-99 4 0 -196z m198
140 c22 -21 27 -84 8 -105 -9 -9 -14 -20 -12 -22 3 -2 -30 -4 -72 -4 l-77 0
-3 64 c-2 35 -1 69 1 75 6 16 137 8 155 -8z"/>
<path d="M11267 1893 c-72 -220 -73 -223 -47 -223 13 0 25 11 34 35 l15 35 84
0 84 0 9 -32 c11 -39 54 -54 54 -19 0 11 -4 23 -10 26 -5 3 -10 14 -10 23 0
14 -17 71 -64 217 -31 96 -33 99 -64 102 l-30 4 -55 -168z m123 2 c18 -58 31
-107 29 -109 -8 -8 -124 -10 -136 -3 -8 5 -8 15 4 37 8 17 12 37 9 45 -3 8 -1
15 4 15 5 0 17 27 26 60 9 33 20 60 24 60 3 0 21 -47 40 -105z"/>
<path d="M11580 1864 l0 -195 22 3 c22 3 23 7 25 123 2 66 3 131 3 145 1 25 1
25 16 5 8 -11 20 -19 25 -17 6 1 8 -2 4 -8 -9 -14 26 -70 39 -63 6 3 8 3 4 -2
-10 -10 32 -86 43 -79 5 3 7 -1 4 -8 -7 -20 48 -93 70 -93 19 0 20 9 23 193 2
186 2 192 -18 192 -18 0 -20 -8 -22 -152 l-3 -152 -95 152 c-75 119 -100 151
-117 152 -22 0 -22 -1 -23 -196z"/>
<path d="M11967 2010 c22 -43 28 -48 42 -38 14 11 14 11 3 -4 -11 -13 -10 -22
6 -52 11 -19 22 -32 26 -29 4 4 4 0 1 -9 -4 -9 -2 -19 4 -23 7 -3 11 -43 11
-96 0 -88 1 -90 23 -87 20 3 22 9 25 88 2 46 8 93 13 102 6 10 7 24 3 31 -4 6
-3 9 1 5 7 -7 95 140 95 157 0 4 -10 5 -22 3 -17 -2 -34 -25 -68 -90 -52 -100
-44 -102 -107 25 -27 55 -38 67 -58 67 l-24 0 26 -50z"/>
<path d="M12420 1864 l0 -195 23 3 c21 3 22 7 22 93 l0 90 88 -3 87 -3 0 -90
c0 -88 0 -89 25 -89 l25 0 0 195 0 195 -25 0 c-25 0 -25 -1 -25 -87 l0 -88
-87 0 -86 1 2 87 2 87 -25 0 -26 0 0 -196z"/>
<path d="M12792 1866 l1 -195 129 0 c110 1 129 3 124 16 -3 8 -6 17 -6 19 0 3
-46 4 -102 3 l-103 -2 0 74 0 74 73 -3 c67 -3 73 -2 70 15 -3 15 -14 18 -72
19 l-68 1 0 62 c1 33 1 64 1 69 1 4 47 7 103 7 87 0 103 2 106 16 3 15 -12 17
-128 18 l-130 2 2 -195z"/>
<path d="M13132 1867 c3 -191 3 -192 26 -195 21 -3 22 -1 22 87 l0 91 45 0 45
0 42 -87 c33 -68 48 -89 66 -91 22 -3 22 -3 6 32 -10 19 -22 32 -27 29 -6 -3
-7 -1 -3 5 4 6 -2 29 -14 51 -23 46 -26 71 -7 71 23 0 58 45 64 84 3 22 2 36
-5 36 -5 0 -9 8 -8 18 0 10 -5 16 -14 14 -8 -2 -12 0 -8 4 10 9 -12 35 -23 28
-5 -3 -9 -1 -9 4 0 5 -45 10 -100 10 l-100 2 2 -193z m193 140 c30 -17 33 -79
6 -106 -17 -17 -34 -21 -86 -21 l-65 0 0 70 0 70 63 0 c34 -1 71 -6 82 -13z"/>
<path d="M13480 1865 l0 -196 127 3 c114 3 128 5 131 21 3 17 -5 18 -95 17
-54 -1 -103 -1 -109 -1 -12 1 -7 121 7 135 4 5 38 8 74 7 59 -2 66 0 63 16 -3
15 -15 18 -76 21 l-73 3 3 66 3 65 100 2 c86 1 100 3 103 19 3 15 -8 17 -127
17 l-131 0 0 -195z"/>
<path d="M7557 1783 c-4 -3 -7 -16 -7 -28 0 -24 22 -49 34 -38 4 4 4 0 1 -8
-12 -32 70 -52 158 -38 18 3 24 19 6 19 -5 0 -8 3 -6 8 3 4 -20 6 -51 6 -64
-1 -77 6 -97 53 -14 32 -25 40 -38 26z"/>
</g>
</svg>
